<svg xmlns="http://www.w3.org/2000/svg" xmlns:xlink="http://www.w3.org/1999/xlink" width="500" zoomAndPan="magnify" viewBox="0 0 375 374.999991" height="500" preserveAspectRatio="xMidYMid meet" version="1.0"><defs><g/></defs><path fill="#e8e8e8" d="M 187.5 375 C 184.429688 375 181.363281 374.925781 178.300781 374.773438 C 175.234375 374.625 172.175781 374.398438 169.121094 374.097656 C 166.066406 373.796875 163.023438 373.421875 159.988281 372.96875 C 156.953125 372.519531 153.929688 371.996094 150.921875 371.398438 C 147.910156 370.796875 144.917969 370.125 141.941406 369.378906 C 138.964844 368.636719 136.007812 367.816406 133.070312 366.925781 C 130.136719 366.035156 127.222656 365.074219 124.332031 364.039062 C 121.445312 363.003906 118.582031 361.902344 115.746094 360.726562 C 112.910156 359.554688 110.105469 358.308594 107.332031 356.996094 C 104.558594 355.6875 101.820312 354.308594 99.113281 352.859375 C 96.40625 351.414062 93.738281 349.902344 91.105469 348.324219 C 88.472656 346.746094 85.882812 345.105469 83.332031 343.402344 C 80.777344 341.695312 78.269531 339.929688 75.804688 338.101562 C 73.339844 336.273438 70.921875 334.386719 68.550781 332.441406 C 66.179688 330.492188 63.855469 328.488281 61.582031 326.429688 C 59.308594 324.367188 57.085938 322.253906 54.917969 320.082031 C 52.746094 317.914062 50.632812 315.691406 48.570312 313.417969 C 46.511719 311.144531 44.507812 308.820312 42.558594 306.449219 C 40.613281 304.078125 38.726562 301.660156 36.898438 299.195312 C 35.070312 296.730469 33.304688 294.222656 31.597656 291.667969 C 29.894531 289.117188 28.253906 286.527344 26.675781 283.894531 C 25.097656 281.261719 23.585938 278.59375 22.140625 275.886719 C 20.691406 273.179688 19.3125 270.441406 18.003906 267.667969 C 16.691406 264.894531 15.445312 262.089844 14.273438 259.253906 C 13.097656 256.417969 11.996094 253.554688 10.960938 250.667969 C 9.925781 247.777344 8.964844 244.863281 8.074219 241.929688 C 7.183594 238.992188 6.363281 236.035156 5.621094 233.058594 C 4.875 230.082031 4.203125 227.089844 3.601562 224.078125 C 3.003906 221.070312 2.480469 218.046875 2.03125 215.011719 C 1.578125 211.976562 1.203125 208.933594 0.902344 205.878906 C 0.601562 202.824219 0.375 199.765625 0.226562 196.699219 C 0.0742188 193.636719 0 190.570312 0 187.5 C 0 184.429688 0.0742188 181.363281 0.226562 178.300781 C 0.375 175.234375 0.601562 172.175781 0.902344 169.121094 C 1.203125 166.066406 1.578125 163.023438 2.03125 159.988281 C 2.480469 156.953125 3.003906 153.929688 3.601562 150.921875 C 4.203125 147.910156 4.875 144.917969 5.621094 141.941406 C 6.363281 138.964844 7.183594 136.007812 8.074219 133.070312 C 8.964844 130.136719 9.925781 127.222656 10.960938 124.332031 C 11.996094 121.445312 13.097656 118.582031 14.273438 115.746094 C 15.445312 112.910156 16.691406 110.105469 18.003906 107.332031 C 19.3125 104.558594 20.691406 101.820312 22.140625 99.113281 C 23.585938 96.40625 25.097656 93.738281 26.675781 91.105469 C 28.253906 88.472656 29.894531 85.882812 31.597656 83.332031 C 33.304688 80.777344 35.070312 78.269531 36.898438 75.804688 C 38.726562 73.339844 40.613281 70.921875 42.558594 68.550781 C 44.507812 66.179688 46.511719 63.855469 48.570312 61.582031 C 50.632812 59.308594 52.746094 57.085938 54.917969 54.917969 C 57.085938 52.746094 59.308594 50.632812 61.582031 48.570312 C 63.855469 46.511719 66.179688 44.507812 68.550781 42.558594 C 70.921875 40.613281 73.339844 38.726562 75.804688 36.898438 C 78.269531 35.070312 80.777344 33.304688 83.332031 31.597656 C 85.882812 29.894531 88.472656 28.253906 91.105469 26.675781 C 93.738281 25.097656 96.40625 23.585938 99.113281 22.140625 C 101.820312 20.691406 104.558594 19.3125 107.332031 18.003906 C 110.105469 16.691406 112.910156 15.445312 115.746094 14.273438 C 118.582031 13.097656 121.445312 11.996094 124.332031 10.960938 C 127.222656 9.925781 130.136719 8.964844 133.070312 8.074219 C 136.007812 7.183594 138.964844 6.363281 141.941406 5.617188 C 144.917969 4.875 147.910156 4.203125 150.921875 3.601562 C 153.929688 3.003906 156.953125 2.480469 159.988281 2.03125 C 163.023438 1.578125 166.066406 1.203125 169.121094 0.902344 C 172.175781 0.601562 175.234375 0.375 178.300781 0.226562 C 181.363281 0.0742188 184.429688 0 187.5 0 C 190.570312 0 193.636719 0.0742188 196.699219 0.226562 C 199.765625 0.375 202.824219 0.601562 205.878906 0.902344 C 208.933594 1.203125 211.976562 1.578125 215.011719 2.03125 C 218.046875 2.480469 221.070312 3.003906 224.078125 3.601562 C 227.089844 4.203125 230.082031 4.875 233.058594 5.617188 C 236.035156 6.363281 238.992188 7.183594 241.929688 8.074219 C 244.863281 8.964844 247.777344 9.925781 250.667969 10.960938 C 253.554688 11.996094 256.417969 13.097656 259.253906 14.273438 C 262.089844 15.445312 264.894531 16.691406 267.667969 18.003906 C 270.441406 19.3125 273.179688 20.691406 275.886719 22.140625 C 278.59375 23.585938 281.261719 25.097656 283.894531 26.675781 C 286.527344 28.253906 289.117188 29.894531 291.667969 31.597656 C 294.222656 33.304688 296.730469 35.070312 299.195312 36.898438 C 301.660156 38.726562 304.078125 40.613281 306.449219 42.558594 C 308.820312 44.507812 311.144531 46.511719 313.417969 48.570312 C 315.691406 50.632812 317.914062 52.746094 320.082031 54.917969 C 322.253906 57.085938 324.367188 59.308594 326.429688 61.582031 C 328.488281 63.855469 330.492188 66.179688 332.441406 68.550781 C 334.386719 70.921875 336.273438 73.339844 338.101562 75.804688 C 339.929688 78.269531 341.695312 80.777344 343.402344 83.332031 C 345.105469 85.882812 346.746094 88.472656 348.324219 91.105469 C 349.902344 93.738281 351.414062 96.40625 352.859375 99.113281 C 354.308594 101.820312 355.6875 104.558594 356.996094 107.332031 C 358.308594 110.105469 359.554688 112.910156 360.726562 115.746094 C 361.902344 118.582031 363.003906 121.445312 364.039062 124.332031 C 365.074219 127.222656 366.035156 130.136719 366.925781 133.070312 C 367.816406 136.007812 368.636719 138.964844 369.378906 141.941406 C 370.125 144.917969 370.796875 147.910156 371.398438 150.921875 C 371.996094 153.929688 372.519531 156.953125 372.96875 159.988281 C 373.421875 163.023438 373.796875 166.066406 374.097656 169.121094 C 374.398438 172.175781 374.625 175.234375 374.773438 178.300781 C 374.925781 181.363281 375 184.429688 375 187.5 C 374.996094 190.566406 374.917969 193.632812 374.765625 196.695312 C 374.609375 199.761719 374.382812 202.820312 374.078125 205.871094 C 373.773438 208.925781 373.394531 211.96875 372.941406 215 C 372.488281 218.035156 371.960938 221.054688 371.359375 224.0625 C 370.761719 227.074219 370.085938 230.0625 369.339844 233.039062 C 368.589844 236.015625 367.769531 238.96875 366.878906 241.902344 C 365.984375 244.839844 365.019531 247.75 363.984375 250.636719 C 362.949219 253.523438 361.84375 256.386719 360.667969 259.21875 C 359.492188 262.050781 358.25 264.855469 356.9375 267.628906 C 355.625 270.398438 354.242188 273.140625 352.796875 275.84375 C 351.347656 278.546875 349.835938 281.214844 348.257812 283.847656 C 346.679688 286.476562 345.039062 289.066406 343.332031 291.617188 C 341.628906 294.167969 339.863281 296.675781 338.035156 299.136719 C 336.207031 301.601562 334.320312 304.019531 332.371094 306.390625 C 330.425781 308.761719 328.421875 311.082031 326.363281 313.355469 C 324.300781 315.628906 322.1875 317.847656 320.019531 320.019531 C 317.847656 322.1875 315.628906 324.300781 313.355469 326.363281 C 311.082031 328.421875 308.761719 330.425781 306.390625 332.371094 C 304.019531 334.320312 301.601562 336.207031 299.136719 338.035156 C 296.675781 339.863281 294.167969 341.628906 291.617188 343.332031 C 289.066406 345.039062 286.476562 346.679688 283.847656 348.257812 C 281.214844 349.835938 278.546875 351.347656 275.84375 352.796875 C 273.140625 354.242188 270.402344 355.625 267.628906 356.9375 C 264.855469 358.25 262.050781 359.492188 259.21875 360.667969 C 256.386719 361.84375 253.523438 362.949219 250.636719 363.984375 C 247.75 365.019531 244.839844 365.984375 241.902344 366.878906 C 238.96875 367.769531 236.015625 368.589844 233.039062 369.339844 C 230.0625 370.085938 227.074219 370.761719 224.0625 371.359375 C 221.054688 371.960938 218.035156 372.488281 215 372.941406 C 211.96875 373.394531 208.925781 373.773438 205.871094 374.078125 C 202.820312 374.382812 199.761719 374.609375 196.695312 374.765625 C 193.632812 374.917969 190.566406 374.996094 187.5 375 Z M 187.5 16.304688 C 184.699219 16.304688 181.898438 16.375 179.101562 16.511719 C 176.300781 16.648438 173.507812 16.855469 170.71875 17.128906 C 167.929688 17.402344 165.152344 17.746094 162.378906 18.15625 C 159.609375 18.570312 156.847656 19.046875 154.101562 19.59375 C 151.351562 20.140625 148.621094 20.753906 145.902344 21.433594 C 143.183594 22.117188 140.484375 22.863281 137.804688 23.675781 C 135.125 24.488281 132.464844 25.367188 129.824219 26.3125 C 127.1875 27.253906 124.574219 28.261719 121.984375 29.335938 C 119.398438 30.40625 116.835938 31.542969 114.304688 32.742188 C 111.773438 33.9375 109.269531 35.199219 106.800781 36.519531 C 104.328125 37.839844 101.890625 39.21875 99.488281 40.660156 C 97.085938 42.101562 94.71875 43.597656 92.390625 45.15625 C 90.058594 46.710938 87.769531 48.324219 85.519531 49.996094 C 83.269531 51.664062 81.058594 53.386719 78.894531 55.164062 C 76.730469 56.941406 74.609375 58.769531 72.53125 60.652344 C 70.457031 62.535156 68.425781 64.464844 66.445312 66.445312 C 64.464844 68.425781 62.535156 70.457031 60.652344 72.53125 C 58.769531 74.609375 56.941406 76.730469 55.164062 78.894531 C 53.386719 81.058594 51.664062 83.269531 49.996094 85.519531 C 48.324219 87.769531 46.710938 90.058594 45.15625 92.390625 C 43.597656 94.71875 42.101562 97.085938 40.660156 99.488281 C 39.21875 101.890625 37.839844 104.328125 36.519531 106.800781 C 35.199219 109.269531 33.9375 111.773438 32.742188 114.304688 C 31.542969 116.835938 30.40625 119.398438 29.335938 121.984375 C 28.261719 124.574219 27.253906 127.1875 26.3125 129.824219 C 25.367188 132.464844 24.488281 135.125 23.675781 137.804688 C 22.863281 140.484375 22.117188 143.183594 21.433594 145.902344 C 20.753906 148.621094 20.140625 151.351562 19.59375 154.101562 C 19.046875 156.847656 18.570312 159.609375 18.15625 162.378906 C 17.746094 165.152344 17.402344 167.933594 17.128906 170.71875 C 16.855469 173.507812 16.648438 176.300781 16.511719 179.101562 C 16.375 181.898438 16.304688 184.699219 16.304688 187.5 C 16.304688 190.300781 16.375 193.101562 16.511719 195.898438 C 16.648438 198.699219 16.855469 201.492188 17.128906 204.28125 C 17.402344 207.070312 17.746094 209.847656 18.15625 212.621094 C 18.570312 215.390625 19.046875 218.152344 19.59375 220.898438 C 20.140625 223.648438 20.753906 226.378906 21.433594 229.097656 C 22.117188 231.816406 22.863281 234.515625 23.675781 237.195312 C 24.488281 239.875 25.367188 242.535156 26.3125 245.175781 C 27.253906 247.8125 28.261719 250.425781 29.335938 253.015625 C 30.40625 255.601562 31.542969 258.164062 32.742188 260.695312 C 33.9375 263.226562 35.199219 265.730469 36.519531 268.199219 C 37.839844 270.671875 39.21875 273.109375 40.660156 275.511719 C 42.101562 277.914062 43.597656 280.28125 45.15625 282.609375 C 46.710938 284.941406 48.324219 287.230469 49.996094 289.480469 C 51.664062 291.730469 53.386719 293.941406 55.164062 296.105469 C 56.941406 298.269531 58.769531 300.390625 60.652344 302.46875 C 62.535156 304.542969 64.464844 306.574219 66.445312 308.554688 C 68.425781 310.535156 70.457031 312.464844 72.53125 314.347656 C 74.609375 316.230469 76.730469 318.058594 78.894531 319.835938 C 81.058594 321.613281 83.269531 323.335938 85.519531 325.003906 C 87.769531 326.675781 90.058594 328.289062 92.390625 329.84375 C 94.71875 331.402344 97.085938 332.898438 99.488281 334.339844 C 101.890625 335.78125 104.328125 337.160156 106.800781 338.480469 C 109.269531 339.800781 111.773438 341.0625 114.304688 342.257812 C 116.835938 343.457031 119.398438 344.59375 121.984375 345.664062 C 124.574219 346.734375 127.1875 347.746094 129.824219 348.6875 C 132.464844 349.632812 135.125 350.511719 137.804688 351.324219 C 140.484375 352.136719 143.183594 352.882812 145.902344 353.566406 C 148.621094 354.246094 151.351562 354.859375 154.101562 355.40625 C 156.847656 355.953125 159.609375 356.429688 162.378906 356.84375 C 165.152344 357.253906 167.929688 357.597656 170.71875 357.871094 C 173.507812 358.144531 176.300781 358.351562 179.101562 358.488281 C 181.898438 358.625 184.699219 358.695312 187.5 358.695312 C 190.300781 358.695312 193.101562 358.625 195.898438 358.488281 C 198.699219 358.351562 201.492188 358.144531 204.28125 357.871094 C 207.066406 357.597656 209.847656 357.253906 212.621094 356.84375 C 215.390625 356.429688 218.152344 355.953125 220.898438 355.40625 C 223.644531 354.859375 226.378906 354.246094 229.097656 353.566406 C 231.816406 352.882812 234.515625 352.136719 237.195312 351.324219 C 239.875 350.511719 242.535156 349.632812 245.175781 348.6875 C 247.8125 347.746094 250.425781 346.734375 253.015625 345.664062 C 255.601562 344.59375 258.164062 343.457031 260.695312 342.257812 C 263.226562 341.0625 265.730469 339.800781 268.199219 338.480469 C 270.671875 337.160156 273.109375 335.78125 275.511719 334.339844 C 277.914062 332.898438 280.28125 331.402344 282.609375 329.84375 C 284.941406 328.289062 287.230469 326.675781 289.480469 325.003906 C 291.730469 323.335938 293.941406 321.613281 296.105469 319.835938 C 298.269531 318.058594 300.390625 316.230469 302.46875 314.347656 C 304.542969 312.464844 306.574219 310.535156 308.554688 308.554688 C 310.535156 306.574219 312.464844 304.542969 314.347656 302.46875 C 316.230469 300.390625 318.058594 298.269531 319.835938 296.105469 C 321.613281 293.941406 323.335938 291.730469 325.003906 289.480469 C 326.675781 287.230469 328.289062 284.941406 329.84375 282.609375 C 331.402344 280.28125 332.898438 277.914062 334.339844 275.511719 C 335.78125 273.109375 337.160156 270.671875 338.480469 268.199219 C 339.800781 265.730469 341.0625 263.226562 342.257812 260.695312 C 343.457031 258.164062 344.59375 255.601562 345.664062 253.015625 C 346.734375 250.425781 347.746094 247.8125 348.6875 245.175781 C 349.632812 242.535156 350.511719 239.875 351.324219 237.195312 C 352.136719 234.515625 352.882812 231.816406 353.566406 229.097656 C 354.246094 226.378906 354.859375 223.644531 355.40625 220.898438 C 355.953125 218.152344 356.429688 215.390625 356.84375 212.621094 C 357.253906 209.847656 357.597656 207.066406 357.871094 204.28125 C 358.144531 201.492188 358.351562 198.699219 358.488281 195.898438 C 358.625 193.101562 358.695312 190.300781 358.695312 187.5 C 358.691406 184.699219 358.621094 181.898438 358.480469 179.101562 C 358.339844 176.304688 358.132812 173.511719 357.855469 170.726562 C 357.578125 167.9375 357.230469 165.160156 356.820312 162.390625 C 356.40625 159.621094 355.925781 156.859375 355.375 154.113281 C 354.828125 151.367188 354.210938 148.636719 353.527344 145.917969 C 352.84375 143.203125 352.097656 140.503906 351.28125 137.824219 C 350.46875 135.144531 349.585938 132.488281 348.640625 129.851562 C 347.695312 127.214844 346.6875 124.601562 345.613281 122.015625 C 344.539062 119.429688 343.40625 116.867188 342.207031 114.335938 C 341.007812 111.804688 339.746094 109.304688 338.425781 106.835938 C 337.105469 104.367188 335.722656 101.929688 334.28125 99.527344 C 332.84375 97.125 331.34375 94.761719 329.785156 92.433594 C 328.230469 90.105469 326.617188 87.816406 324.949219 85.566406 C 323.277344 83.316406 321.554688 81.109375 319.777344 78.945312 C 318 76.78125 316.171875 74.660156 314.292969 72.585938 C 312.410156 70.507812 310.480469 68.480469 308.5 66.5 C 306.519531 64.519531 304.492188 62.589844 302.414062 60.707031 C 300.339844 58.828125 298.21875 57 296.054688 55.222656 C 293.890625 53.445312 291.683594 51.722656 289.433594 50.050781 C 287.183594 48.382812 284.894531 46.769531 282.566406 45.214844 C 280.238281 43.65625 277.875 42.15625 275.472656 40.71875 C 273.070312 39.277344 270.632812 37.894531 268.164062 36.574219 C 265.695312 35.253906 263.195312 33.992188 260.664062 32.792969 C 258.132812 31.59375 255.570312 30.460938 252.984375 29.386719 C 250.398438 28.3125 247.785156 27.304688 245.148438 26.359375 C 242.511719 25.414062 239.855469 24.53125 237.175781 23.71875 C 234.496094 22.902344 231.796875 22.15625 229.082031 21.472656 C 226.363281 20.789062 223.632812 20.171875 220.886719 19.625 C 218.140625 19.074219 215.378906 18.59375 212.609375 18.179688 C 209.839844 17.769531 207.0625 17.421875 204.273438 17.144531 C 201.488281 16.867188 198.695312 16.660156 195.898438 16.519531 C 193.101562 16.378906 190.300781 16.308594 187.5 16.304688 Z M 187.5 16.304688 " fill-opacity="1" fill-rule="nonzero"/><path fill="#e8e8e8" d="M 277.121094 167.773438 L 193.261719 83.914062 C 192.886719 83.535156 192.472656 83.199219 192.027344 82.902344 C 191.582031 82.605469 191.113281 82.351562 190.617188 82.148438 C 190.125 81.945312 189.613281 81.789062 189.089844 81.683594 C 188.566406 81.582031 188.035156 81.527344 187.5 81.527344 C 186.964844 81.527344 186.433594 81.582031 185.910156 81.683594 C 185.386719 81.789062 184.875 81.945312 184.382812 82.148438 C 183.886719 82.351562 183.417969 82.605469 182.972656 82.902344 C 182.527344 83.199219 182.113281 83.535156 181.738281 83.914062 L 83.910156 181.742188 C 83.542969 182.121094 83.214844 182.535156 82.925781 182.980469 C 82.640625 183.421875 82.398438 183.890625 82.203125 184.382812 C 82.007812 184.875 81.859375 185.382812 81.761719 185.902344 C 81.664062 186.421875 81.617188 186.945312 81.621094 187.476562 C 81.625 188.003906 81.683594 188.527344 81.789062 189.046875 C 81.894531 189.566406 82.050781 190.070312 82.257812 190.558594 C 82.460938 191.046875 82.710938 191.507812 83.003906 191.949219 C 83.300781 192.386719 83.636719 192.792969 84.007812 193.167969 C 84.382812 193.542969 84.789062 193.878906 85.230469 194.171875 C 85.667969 194.46875 86.132812 194.71875 86.621094 194.921875 C 87.109375 195.128906 87.613281 195.28125 88.132812 195.390625 C 88.648438 195.496094 89.175781 195.550781 89.703125 195.554688 C 90.234375 195.5625 90.757812 195.515625 91.277344 195.417969 C 91.796875 195.320312 92.304688 195.171875 92.796875 194.976562 C 93.285156 194.78125 93.753906 194.539062 94.199219 194.25 C 94.644531 193.964844 95.058594 193.636719 95.4375 193.269531 L 95.5 193.203125 L 95.5 269.023438 C 95.503906 269.824219 95.542969 270.621094 95.621094 271.417969 C 95.699219 272.214844 95.820312 273.003906 95.976562 273.792969 C 96.132812 274.578125 96.328125 275.351562 96.558594 276.117188 C 96.792969 276.882812 97.0625 277.636719 97.371094 278.375 C 97.675781 279.117188 98.019531 279.839844 98.398438 280.546875 C 98.773438 281.25 99.1875 281.9375 99.632812 282.601562 C 100.078125 283.269531 100.554688 283.910156 101.0625 284.53125 C 101.570312 285.148438 102.105469 285.742188 102.671875 286.308594 C 103.238281 286.875 103.832031 287.410156 104.449219 287.917969 C 105.070312 288.425781 105.710938 288.902344 106.375 289.347656 C 107.042969 289.792969 107.726562 290.203125 108.433594 290.582031 C 109.140625 290.960938 109.863281 291.300781 110.601562 291.609375 C 111.34375 291.917969 112.09375 292.1875 112.863281 292.417969 C 113.628906 292.652344 114.402344 292.847656 115.1875 293.003906 C 115.972656 293.160156 116.765625 293.277344 117.5625 293.359375 C 118.359375 293.4375 119.15625 293.476562 119.957031 293.476562 L 154.890625 293.476562 C 155.425781 293.476562 155.957031 293.425781 156.480469 293.320312 C 157.007812 293.21875 157.515625 293.0625 158.011719 292.859375 C 158.503906 292.652344 158.976562 292.402344 159.421875 292.105469 C 159.867188 291.808594 160.277344 291.46875 160.65625 291.089844 C 161.035156 290.710938 161.371094 290.300781 161.667969 289.855469 C 161.96875 289.410156 162.21875 288.941406 162.421875 288.445312 C 162.628906 287.953125 162.78125 287.441406 162.886719 286.917969 C 162.992188 286.390625 163.042969 285.863281 163.042969 285.324219 L 163.042969 236.414062 C 163.042969 235.613281 163.082031 234.8125 163.160156 234.015625 C 163.238281 233.21875 163.355469 232.425781 163.511719 231.640625 C 163.667969 230.855469 163.863281 230.082031 164.097656 229.3125 C 164.328125 228.546875 164.597656 227.792969 164.90625 227.054688 C 165.210938 226.3125 165.554688 225.589844 165.929688 224.882812 C 166.308594 224.179688 166.71875 223.492188 167.164062 222.824219 C 167.609375 222.160156 168.085938 221.515625 168.59375 220.898438 C 169.101562 220.277344 169.640625 219.6875 170.207031 219.121094 C 170.773438 218.554688 171.367188 218.015625 171.984375 217.507812 C 172.605469 217 173.246094 216.523438 173.914062 216.078125 C 174.578125 215.632812 175.265625 215.222656 175.972656 214.84375 C 176.675781 214.464844 177.402344 214.125 178.140625 213.816406 C 178.882812 213.511719 179.632812 213.242188 180.402344 213.007812 C 181.167969 212.777344 181.941406 212.582031 182.730469 212.425781 C 183.515625 212.269531 184.304688 212.152344 185.101562 212.074219 C 185.898438 211.996094 186.699219 211.957031 187.5 211.957031 C 188.300781 211.957031 189.101562 211.996094 189.898438 212.074219 C 190.695312 212.152344 191.484375 212.269531 192.269531 212.425781 C 193.058594 212.582031 193.832031 212.777344 194.597656 213.007812 C 195.367188 213.242188 196.117188 213.511719 196.859375 213.816406 C 197.597656 214.125 198.324219 214.464844 199.027344 214.84375 C 199.734375 215.222656 200.421875 215.632812 201.085938 216.078125 C 201.753906 216.523438 202.394531 217 203.015625 217.507812 C 203.632812 218.015625 204.226562 218.554688 204.792969 219.121094 C 205.359375 219.6875 205.898438 220.277344 206.40625 220.898438 C 206.914062 221.515625 207.390625 222.160156 207.835938 222.824219 C 208.28125 223.492188 208.691406 224.179688 209.070312 224.882812 C 209.445312 225.589844 209.789062 226.3125 210.09375 227.054688 C 210.402344 227.792969 210.671875 228.546875 210.902344 229.3125 C 211.136719 230.082031 211.332031 230.855469 211.488281 231.640625 C 211.644531 232.425781 211.761719 233.21875 211.839844 234.015625 C 211.917969 234.8125 211.957031 235.613281 211.957031 236.414062 L 211.957031 285.324219 C 211.957031 285.863281 212.007812 286.390625 212.113281 286.917969 C 212.21875 287.441406 212.371094 287.953125 212.578125 288.445312 C 212.78125 288.941406 213.03125 289.410156 213.332031 289.855469 C 213.628906 290.300781 213.964844 290.710938 214.34375 291.089844 C 214.722656 291.46875 215.132812 291.808594 215.578125 292.105469 C 216.023438 292.402344 216.496094 292.652344 216.988281 292.859375 C 217.484375 293.0625 217.992188 293.21875 218.519531 293.320312 C 219.042969 293.425781 219.574219 293.476562 220.109375 293.476562 L 255.042969 293.476562 C 255.84375 293.476562 256.640625 293.4375 257.4375 293.359375 C 258.234375 293.277344 259.027344 293.160156 259.8125 293.003906 C 260.597656 292.847656 261.371094 292.652344 262.136719 292.417969 C 262.90625 292.1875 263.65625 291.917969 264.398438 291.609375 C 265.136719 291.300781 265.859375 290.960938 266.566406 290.582031 C 267.273438 290.203125 267.957031 289.792969 268.625 289.347656 C 269.289062 288.902344 269.929688 288.425781 270.550781 287.917969 C 271.167969 287.410156 271.761719 286.875 272.328125 286.308594 C 272.894531 285.742188 273.429688 285.148438 273.9375 284.53125 C 274.445312 283.910156 274.921875 283.269531 275.367188 282.601562 C 275.8125 281.9375 276.226562 281.25 276.601562 280.546875 C 276.980469 279.839844 277.324219 279.117188 277.628906 278.375 C 277.9375 277.636719 278.207031 276.882812 278.441406 276.117188 C 278.671875 275.351562 278.867188 274.578125 279.023438 273.789062 C 279.179688 273.003906 279.300781 272.214844 279.378906 271.417969 C 279.457031 270.621094 279.496094 269.824219 279.5 269.023438 L 279.5 193.207031 L 279.5625 193.269531 C 279.941406 193.636719 280.355469 193.964844 280.800781 194.253906 C 281.246094 194.539062 281.714844 194.78125 282.203125 194.976562 C 282.695312 195.175781 283.203125 195.320312 283.722656 195.417969 C 284.242188 195.515625 284.765625 195.5625 285.296875 195.558594 C 285.824219 195.554688 286.351562 195.5 286.867188 195.390625 C 287.386719 195.285156 287.890625 195.128906 288.378906 194.925781 C 288.867188 194.71875 289.332031 194.46875 289.769531 194.175781 C 290.210938 193.878906 290.617188 193.546875 290.992188 193.171875 C 291.363281 192.796875 291.699219 192.390625 291.996094 191.949219 C 292.289062 191.511719 292.539062 191.046875 292.742188 190.558594 C 292.949219 190.070312 293.105469 189.566406 293.210938 189.050781 C 293.316406 188.53125 293.375 188.007812 293.378906 187.476562 C 293.382812 186.949219 293.335938 186.421875 293.238281 185.902344 C 293.140625 185.382812 292.992188 184.875 292.796875 184.386719 C 292.601562 183.894531 292.359375 183.425781 292.074219 182.980469 C 291.785156 182.535156 291.457031 182.125 291.089844 181.742188 Z M 263.195312 269.023438 C 263.195312 269.558594 263.140625 270.085938 263.035156 270.609375 C 262.929688 271.136719 262.773438 271.644531 262.570312 272.140625 C 262.363281 272.632812 262.113281 273.101562 261.816406 273.546875 C 261.519531 273.992188 261.179688 274.402344 260.800781 274.78125 C 260.421875 275.160156 260.011719 275.496094 259.566406 275.796875 C 259.121094 276.09375 258.652344 276.34375 258.160156 276.550781 C 257.664062 276.753906 257.15625 276.910156 256.632812 277.015625 C 256.105469 277.121094 255.578125 277.171875 255.042969 277.175781 L 228.261719 277.175781 L 228.261719 236.414062 C 228.261719 235.078125 228.195312 233.746094 228.066406 232.417969 C 227.933594 231.089844 227.738281 229.769531 227.476562 228.460938 C 227.21875 227.152344 226.894531 225.859375 226.503906 224.582031 C 226.117188 223.304688 225.667969 222.046875 225.15625 220.816406 C 224.648438 219.582031 224.078125 218.375 223.449219 217.199219 C 222.820312 216.019531 222.132812 214.878906 221.390625 213.765625 C 220.648438 212.65625 219.855469 211.585938 219.007812 210.554688 C 218.160156 209.523438 217.265625 208.535156 216.324219 207.589844 C 215.378906 206.648438 214.390625 205.75 213.359375 204.90625 C 212.328125 204.058594 211.253906 203.261719 210.144531 202.523438 C 209.035156 201.78125 207.890625 201.09375 206.714844 200.464844 C 205.539062 199.835938 204.332031 199.265625 203.097656 198.753906 C 201.863281 198.242188 200.609375 197.792969 199.332031 197.40625 C 198.054688 197.019531 196.761719 196.695312 195.453125 196.433594 C 194.144531 196.175781 192.824219 195.980469 191.496094 195.847656 C 190.167969 195.71875 188.835938 195.652344 187.5 195.652344 C 186.164062 195.652344 184.832031 195.71875 183.503906 195.847656 C 182.175781 195.980469 180.855469 196.175781 179.546875 196.433594 C 178.238281 196.695312 176.945312 197.019531 175.667969 197.40625 C 174.390625 197.792969 173.136719 198.242188 171.902344 198.753906 C 170.667969 199.265625 169.460938 199.835938 168.285156 200.464844 C 167.109375 201.09375 165.964844 201.78125 164.855469 202.523438 C 163.746094 203.261719 162.671875 204.058594 161.640625 204.90625 C 160.609375 205.75 159.621094 206.648438 158.675781 207.589844 C 157.734375 208.535156 156.839844 209.523438 155.992188 210.554688 C 155.144531 211.585938 154.351562 212.65625 153.609375 213.765625 C 152.867188 214.878906 152.179688 216.019531 151.550781 217.199219 C 150.921875 218.375 150.351562 219.582031 149.84375 220.816406 C 149.332031 222.046875 148.882812 223.304688 148.496094 224.582031 C 148.105469 225.859375 147.78125 227.152344 147.523438 228.460938 C 147.261719 229.769531 147.066406 231.089844 146.933594 232.417969 C 146.804688 233.746094 146.738281 235.078125 146.738281 236.414062 L 146.738281 277.175781 L 119.957031 277.175781 C 119.421875 277.171875 118.894531 277.121094 118.367188 277.015625 C 117.84375 276.910156 117.335938 276.753906 116.839844 276.550781 C 116.347656 276.34375 115.878906 276.09375 115.433594 275.796875 C 114.988281 275.496094 114.578125 275.160156 114.199219 274.78125 C 113.820312 274.402344 113.480469 273.992188 113.183594 273.546875 C 112.886719 273.101562 112.636719 272.632812 112.429688 272.140625 C 112.226562 271.644531 112.070312 271.136719 111.964844 270.609375 C 111.859375 270.085938 111.804688 269.558594 111.804688 269.023438 L 111.804688 176.902344 L 187.5 101.199219 L 263.195312 176.902344 Z M 263.195312 269.023438 " fill-opacity="1" fill-rule="nonzero"/><g fill="#000000" fill-opacity="1"><g transform="translate(20.622304, 357.869859)"><g><path d="M 1.1875 -0.828125 C 1.1875 -1.179688 1.265625 -1.445312 1.421875 -1.625 C 1.585938 -1.800781 1.816406 -1.890625 2.109375 -1.890625 C 2.410156 -1.890625 2.644531 -1.800781 2.8125 -1.625 C 2.988281 -1.445312 3.078125 -1.179688 3.078125 -0.828125 C 3.078125 -0.492188 2.988281 -0.234375 2.8125 -0.046875 C 2.644531 0.140625 2.410156 0.234375 2.109375 0.234375 C 1.847656 0.234375 1.628906 0.148438 1.453125 -0.015625 C 1.273438 -0.179688 1.1875 -0.453125 1.1875 -0.828125 Z M 1.1875 -0.828125 "/></g></g></g></svg>